<?xml version="1.0" standalone="no"?>
<!DOCTYPE svg PUBLIC "-//W3C//DTD SVG 20010904//EN"
 "http://www.w3.org/TR/2001/REC-SVG-20010904/DTD/svg10.dtd">
<svg version="1.0" xmlns="http://www.w3.org/2000/svg"
 width="96.000000pt" height="96.000000pt" viewBox="0 0 96.000000 96.000000"
 preserveAspectRatio="xMidYMid meet">
<metadata>
Created by potrace 1.14, written by Peter Selinger 2001-2017
</metadata>
<g transform="translate(0.000000,96.000000) scale(0.100000,-0.100000)"
fill="#000000" stroke="none">
<path d="M598 914 c-49 -26 -79 -119 -65 -204 7 -45 76 -138 91 -123 3 4 6 1
6 -5 0 -7 9 -12 19 -12 11 0 22 -4 25 -9 4 -5 17 -8 31 -6 14 1 25 -3 25 -9 0
-7 3 -7 8 -1 4 6 16 10 27 11 32 1 75 15 75 25 0 5 7 9 15 9 21 0 45 42 39 67
-7 25 -21 31 -76 35 -40 2 -105 41 -122 73 -6 11 -14 22 -17 25 -12 11 -17 37
-9 51 5 7 5 18 0 24 -4 5 -8 12 -7 15 0 3 -4 14 -11 25 -6 11 -12 16 -12 10 0
-5 -4 -5 -8 2 -5 8 -14 8 -34 -3z"/>
<path d="M388 878 c-6 -16 1 -40 11 -34 3 3 17 -3 30 -13 21 -16 22 -19 7 -34
-13 -13 -39 -16 -139 -16 -159 1 -159 1 -152 -11 3 -5 0 -10 -7 -10 -7 0 -4
-6 7 -12 12 -7 69 -12 145 -13 135 -1 175 10 189 49 9 24 -2 70 -21 89 -18 17
-64 21 -70 5z"/>
<path d="M809 841 c-8 -4 -15 -18 -16 -33 -1 -22 3 -28 18 -28 11 0 17 -5 14
-10 -4 -6 5 -5 19 2 20 8 26 19 26 43 0 26 -4 31 -24 31 -13 0 -30 -2 -37 -5z"/>
<path d="M150 692 c-102 -3 -130 -12 -108 -36 7 -7 73 -11 195 -11 152 0 185
3 193 15 5 8 6 18 2 22 -9 9 -149 14 -282 10z"/>
<path d="M289 608 c-7 -24 -5 -38 7 -38 8 0 14 -7 14 -15 0 -12 -18 -15 -99
-15 -101 0 -131 -11 -99 -34 20 -14 196 -14 220 0 26 14 34 67 13 87 -13 14
-53 24 -56 15z"/>
<path d="M558 525 c-17 -63 -8 -80 36 -75 10 1 23 -4 27 -12 9 -14 11 -6 11
47 0 46 -1 47 -32 43 -16 -2 -31 0 -33 6 -2 6 -6 2 -9 -9z"/>
<path d="M790 480 c-7 -4 -8 -48 -1 -83 0 -4 10 -3 20 3 13 7 22 7 26 0 11
-18 30 13 31 48 0 17 -3 32 -6 33 -27 4 -62 4 -70 -1z"/>
<path d="M257 346 c-23 -22 -62 -65 -87 -95 -25 -29 -58 -67 -75 -85 -16 -17
-38 -44 -48 -59 -16 -25 -16 -29 -2 -43 8 -8 15 -20 15 -25 0 -5 167 -9 416
-9 430 0 432 0 446 40 6 18 -23 62 -77 115 -22 22 -38 40 -35 40 5 0 -39 52
-77 91 -13 13 -23 28 -23 34 0 6 -4 8 -10 5 -5 -3 -10 -2 -10 3 0 5 -14 15
-31 22 -25 11 -32 11 -39 0 -6 -10 -9 -9 -13 1 -4 10 -6 10 -6 2 -1 -7 -8 -13
-16 -13 -8 0 -15 -4 -15 -9 0 -5 -20 -31 -45 -57 l-44 -48 -51 53 c-28 29 -48
56 -46 60 3 4 0 8 -7 8 -7 1 -27 3 -45 6 -29 4 -40 -1 -75 -37z"/>
</g>
</svg>
